<svg width="43" height="35" viewBox="0 0 43 35" fill="none" xmlns="http://www.w3.org/2000/svg">
<path fill-rule="evenodd" clip-rule="evenodd" d="M12.125 0.625L0.875 10V34.375H12.125L17.75 28.75H25.25L30.875 34.375H42.125V10L30.875 0.625H12.125ZM38.375 11.7625V30.625H32.4312L26.8062 25H16.1938L10.5688 30.625H4.625V11.7625L13.475 4.375H29.525L38.375 11.7625ZM15.875 13.75H19.625V17.5H15.875V21.25H12.125V17.5H8.375V13.75H12.125V10H15.875V13.75ZM35.5625 15.625C35.5625 17.1783 34.3033 18.4375 32.75 18.4375C31.1967 18.4375 29.9375 17.1783 29.9375 15.625C29.9375 14.0717 31.1967 12.8125 32.75 12.8125C34.3033 12.8125 35.5625 14.0717 35.5625 15.625ZM25.25 18.4375C26.8033 18.4375 28.0625 17.1783 28.0625 15.625C28.0625 14.0717 26.8033 12.8125 25.25 12.8125C23.6967 12.8125 22.4375 14.0717 22.4375 15.625C22.4375 17.1783 23.6967 18.4375 25.25 18.4375Z" fill="#F9FAFA"/>
</svg>
