<svg width="80" height="80" viewBox="0 0 80 80" fill="none" xmlns="http://www.w3.org/2000/svg">
<path fill-rule="evenodd" clip-rule="evenodd" d="M58.6765 44H56.6146C56.0813 44 55.727 44.078 55.5532 44.2314C55.3788 44.3872 55.2927 44.7015 55.2927 45.1744V56.8217L49.2005 45.1441C48.954 44.6486 48.7124 44.3346 48.477 44.2012C48.2405 44.0678 47.8261 44 47.2312 44H45.3233C44.79 44 44.4359 44.078 44.2618 44.2314C44.088 44.3872 44 44.7015 44 45.1744V64.8259C44 65.3009 44.0815 65.6131 44.2465 65.7689C44.4109 65.9222 44.7588 66 45.2921 66H47.3854C47.9173 66 48.2714 65.9222 48.4458 65.7689C48.6196 65.6131 48.7073 65.3009 48.7073 64.8259V53.1456L54.7992 64.8559C55.046 65.3514 55.2862 65.6657 55.523 65.7988C55.7584 65.9347 56.1739 66 56.7685 66H58.6765C59.21 66 59.5628 65.9222 59.7385 65.7689C59.9123 65.6131 60 65.3009 60 64.8259V45.1744C60 44.7015 59.9123 44.3872 59.7385 44.2314C59.5628 44.078 59.21 44 58.6765 44ZM31 27.6659C31 28.4886 30.942 29.1768 30.8256 29.7276C30.7093 30.2785 30.5193 30.7266 30.2544 31.0671C29.9898 31.4073 29.6408 31.6474 29.2068 31.7894C28.7728 31.929 28.2377 32 27.6032 32H25V19H27.6032C28.8103 19 29.6772 19.3381 30.2067 20.0089C30.7351 20.68 31 21.7891 31 23.3341V27.6659ZM35.2327 18.295C34.5154 16.8315 33.5384 15.7503 32.3 15.0512C31.0604 14.3497 29.4998 14 27.6164 14H21.321C20.7888 14 20.4351 14.078 20.2613 14.2314C20.0878 14.3872 20 14.7015 20 15.1743V34.8257C20 35.3009 20.0878 35.6128 20.2613 35.7686C20.4351 35.922 20.7888 36 21.321 36H28.3836C31.7213 36 34.0043 34.5691 35.2327 31.705C35.519 31.0464 35.7188 30.3824 35.8313 29.7111C35.9439 29.0423 36 28.1922 36 27.1637V22.9921C36 21.818 35.9439 20.89 35.8313 20.2111C35.7188 19.5296 35.519 18.8934 35.2327 18.295ZM69.955 41.7457L75 46.8298V75H5L5.02771 46.7627L10.0447 41.7457C10.5118 41.2797 10.7681 40.6596 10.7681 40.0001C10.7681 39.3406 10.5118 38.7197 10.0447 38.2538L5 33.1705V5H75L74.9723 33.2373L69.955 38.2538C69.4882 38.7197 69.2316 39.3406 69.2316 40.0001C69.2316 40.6596 69.4882 41.2797 69.955 41.7457ZM75.2221 40L79.9723 35.2859V0H0.0277333L0 35.2187L4.77707 40L0.0277333 44.7133V80H79.9723L80 44.7805L75.2221 40ZM49 27L51.4695 19L54 27H49ZM60.8811 34.6723L54.6073 15.0512C54.4672 14.6186 54.3081 14.3346 54.1294 14.2012C53.9497 14.068 53.6605 14 53.2628 14H49.797C49.3983 14 49.1052 14.0729 48.9155 14.2163C48.7261 14.3597 48.5717 14.6389 48.4526 15.0512L42.1191 34.6723C42.0389 34.7754 42 34.979 42 35.2885C42 35.7637 42.2785 36 42.8363 36H45.4353C45.6749 36 45.8682 35.99 46.0176 35.9698C46.1671 35.9498 46.2862 35.8969 46.3763 35.814C46.4662 35.7335 46.5451 35.6077 46.6159 35.4443C46.6851 35.2782 46.7593 35.0619 46.8393 34.7957L47.8255 31.3656H54.966L55.9807 34.7328C56.0612 35.0217 56.1401 35.2483 56.2203 35.414C56.2992 35.5777 56.3893 35.7057 56.4891 35.7988C56.5889 35.892 56.7078 35.9498 56.8476 35.9698C56.986 35.99 57.1663 36 57.3847 36H60.1637C60.7207 36 61 35.7637 61 35.2885C61 35.1451 60.9956 35.0471 60.9856 34.9966C60.9747 34.9439 60.9407 34.8359 60.8811 34.6723ZM34.852 61.4263H26.2638L35.4111 48.574C35.5548 48.3677 35.648 48.2019 35.6898 48.0785C35.7313 47.9554 35.7514 47.8123 35.7514 47.6459V45.1744C35.7514 44.7015 35.6632 44.3872 35.4881 44.2314C35.3126 44.078 34.9553 44 34.4181 44H21.211C20.7351 44 20.4262 44.088 20.2812 44.2614C20.1361 44.4377 20.064 44.802 20.064 45.3604V47.2136C20.064 47.7691 20.1361 48.1366 20.2812 48.3099C20.4262 48.486 20.7351 48.574 21.211 48.574H29.3639L20.3419 61.4263C20.1133 61.7152 20 62.0044 20 62.2912V64.8259C20 65.3009 20.0884 65.6131 20.2636 65.7689C20.439 65.9222 20.7961 66 21.3332 66H34.852C35.3275 66 35.638 65.912 35.7831 65.7386C35.9268 65.5626 36 65.1977 36 64.6396V62.7867C36 62.2307 35.9268 61.8661 35.7831 61.6901C35.638 61.514 35.3275 61.4263 34.852 61.4263Z" fill="white"/>
</svg>
