<svg width="22" height="20" viewBox="0 0 22 20" fill="none" xmlns="http://www.w3.org/2000/svg">
<path fill-rule="evenodd" clip-rule="evenodd" d="M18 18.0002L2 18.0002L2 20.0002L18 20.0002L18 18.0002Z" fill="white"/>
<path fill-rule="evenodd" clip-rule="evenodd" d="M2 20.0002L2 5.00024L-6.55671e-07 5.00024L0 20.0002L2 20.0002Z" fill="white"/>
<path fill-rule="evenodd" clip-rule="evenodd" d="M18 19.6001L18 15.0001L16 15.0001L16 19.6001L18 19.6001Z" fill="white"/>
<path fill-rule="evenodd" clip-rule="evenodd" d="M0 7.00024L7 7.00024V5.00024L0 5.00024L0 7.00024Z" fill="white"/>
<path fill-rule="evenodd" clip-rule="evenodd" d="M9 15L16 8.5L16 13L18 13L18.0003 4.99995L9.00032 4.95992L9.00032 6.99995L14 7L7 13L9 15Z" fill="white"/>
</svg>
